Coordinates
version=1
nRows=38
nColumns=38
inDegrees=no

Units are S.I. units (second, meters, Newtons, ...)
If the header above contains a line with 'inDegrees', this indicates whether rotational values are in degrees (yes) or radians (no).

endheader
time	pelvis_tilt	pelvis_list	pelvis_rotation	pelvis_tx	pelvis_ty	pelvis_tz	hip_flexion_r	hip_adduction_r	hip_rotation_r	knee_angle_r	ankle_angle_r	subtalar_angle_r	mtp_angle_r	hip_flexion_l	hip_adduction_l	hip_rotation_l	knee_angle_l	ankle_angle_l	subtalar_angle_l	mtp_angle_l	lumbar_extension	lumbar_bending	lumbar_rotation	arm_flex_r	arm_add_r	arm_rot_r	elbow_flex_r	pro_sup_r	wrist_flex_r	wrist_dev_r	arm_flex_l	arm_add_l	arm_rot_l	elbow_flex_l	pro_sup_l	wrist_flex_l	wrist_dev_l
5	0.0999043	1.25117	1.38663	0.777647	-0.0163056	0.804381	1.12461	0.00228056	0.00214716	1.37534	0.421269	0	0	1.04687	-0.146257	-0.00843576	1.32673	0.523599	0	0	-0.716711	-0.0288989	0.0966679	0.601514	-0.231944	0.123239	0.393571	1.41404	0	0	0.565568	-0.267429	0.336083	0.391475	1.42249	0	0
5.01	0.0978817	1.25165	1.39043	0.777616	-0.0162591	0.80427	1.12447	0.00117839	0.00307503	1.3763	0.421811	0	0	1.04661	-0.144923	-0.00900944	1.32677	0.523599	0	0	-0.716062	-0.0294532	0.0956779	0.599308	-0.22953	0.113794	0.393885	1.42642	0	0	0.566163	-0.268671	0.339131	0.391506	1.41544	0	0
5.02	0.0969926	1.25243	1.39311	0.777582	-0.0161782	0.80423	1.12374	0.000484044	0.00397016	1.377	0.422377	0	0	1.04589	-0.143871	-0.00937848	1.3267	0.523599	0	0	-0.715542	-0.0294902	0.0943555	0.596648	-0.227587	0.11355	0.395384	1.415	0	0	0.566857	-0.269368	0.335578	0.389624	1.42284	0	0
5.03	0.0974474	1.25419	1.39409	0.777544	-0.0160665	0.804399	1.12155	0.000243278	0.00485638	1.37722	0.422899	0	0	1.04381	-0.14345	-0.0100095	1.32644	0.523599	0	0	-0.716139	-0.0294253	0.0935834	0.594497	-0.225195	0.108497	0.395974	1.41454	0	0	0.568018	-0.270941	0.339492	0.388387	1.42013	0	0
5.04	0.0986561	1.25605	1.39413	0.777529	-0.015903	0.804671	1.11901	0.000276264	0.00549322	1.37716	0.423326	0	0	1.04139	-0.143391	-0.0105988	1.32599	0.523599	0	0	-0.716587	-0.0290833	0.0930867	0.592538	-0.223205	0.105678	0.396137	1.41429	0	0	0.569698	-0.27132	0.337978	0.384998	1.42918	0	0
5.05	0.0998702	1.25796	1.39373	0.777539	-0.0157157	0.805045	1.11623	0.000823593	0.00644194	1.3767	0.423471	0	0	1.03863	-0.143735	-0.0114752	1.32523	0.523599	0	0	-0.71686	-0.0290108	0.0933067	0.590473	-0.221512	0.101196	0.395921	1.41391	0	0	0.571921	-0.272109	0.342969	0.381588	1.43039	0	0
5.06	0.101015	1.26003	1.39299	0.777571	-0.015527	0.805521	1.11315	0.00175096	0.00772046	1.37584	0.423326	0	0	1.03545	-0.144356	-0.0126146	1.32408	0.523599	0	0	-0.716997	-0.0293236	0.0943641	0.588182	-0.220714	0.0982142	0.395568	1.40994	0	0	0.574287	-0.274943	0.36583	0.381032	1.40257	0	0
5.07	0.10229	1.26171	1.39195	0.777601	-0.0153032	0.806074	1.11018	0.00274662	0.00873406	1.37455	0.4231	0	0	1.03239	-0.145025	-0.013654	1.32246	0.523599	0	0	-0.716398	-0.029457	0.0954972	0.586022	-0.220507	0.0992061	0.394775	1.40558	0	0	0.576801	-0.275744	0.378541	0.378038	1.39445	0	0
5.08	0.102626	1.26262	1.3919	0.777608	-0.0150359	0.806683	1.10775	0.00345921	0.00977605	1.37272	0.422361	0	0	1.02987	-0.145253	-0.0145932	1.32021	0.523599	0	0	-0.714649	-0.0295668	0.0964941	0.58402	-0.21976	0.0954676	0.393062	1.41508	0	0	0.57925	-0.273513	0.374369	0.371656	1.41911	0	0
5.09	0.102419	1.26348	1.39241	0.777597	-0.0147706	0.807414	1.10515	0.00395771	0.0109859	1.37039	0.421724	0	0	1.02711	-0.145207	-0.0156201	1.31737	0.523599	0	0	-0.71241	-0.0298759	0.0978465	0.581688	-0.220272	0.0972703	0.391934	1.41393	0	0	0.580661	-0.273541	0.387965	0.370301	1.41255	0	0
5.1	0.103027	1.26489	1.39204	0.777552	-0.0145169	0.808324	1.10162	0.00442555	0.0118448	1.36763	0.421322	0	0	1.02346	-0.145373	-0.0167402	1.31407	0.523599	0	0	-0.710419	-0.0300054	0.0993593	0.579249	-0.223588	0.117362	0.392242	1.37882	0	0	0.581343	-0.276171	0.418337	0.372926	1.37058	0	0
5.11	0.102089	1.26528	1.39297	0.777496	-0.014205	0.809316	1.09886	0.00475547	0.0127231	1.36452	0.420693	0	0	1.02042	-0.145315	-0.018141	1.30993	0.523599	0	0	-0.707273	-0.0303443	0.100788	0.577734	-0.222741	0.103838	0.388442	1.40531	0	0	0.582803	-0.272684	0.408105	0.366852	1.39706	0	0
5.12	0.100925	1.26635	1.39347	0.777456	-0.0139311	0.810563	1.09503	0.00546564	0.0137605	1.36107	0.419862	0	0	1.01615	-0.145517	-0.0199539	1.30494	0.523599	0	0	-0.7043	-0.0311708	0.102191	0.575527	-0.227257	0.133766	0.387442	1.35483	0	0	0.581723	-0.275082	0.433084	0.370415	1.35431	0	0
5.13	0.116443	1.27419	1.38417	0.777406	-0.0126501	0.812674	1.06067	0.00825501	0.010319	1.31675	0.434585	0	0	1.00332	-0.145272	-0.0178563	1.29974	0.523599	0	0	-0.709706	-0.0257365	0.101338	0.574406	-0.22781	0.138811	0.383658	1.34721	0	0	0.581307	-0.274519	0.43882	0.370241	1.35117	0	0
5.14	0.113301	1.27516	1.38716	0.777373	-0.0122147	0.814248	1.05635	0.00812095	0.011913	1.31149	0.432648	0	0	0.998311	-0.144532	-0.0199049	1.29322	0.523599	0	0	-0.706057	-0.0267712	0.101778	0.572053	-0.228091	0.142693	0.379733	1.34083	0	0	0.578849	-0.273449	0.441007	0.370383	1.35237	0	0
5.15	0.109163	1.27612	1.39088	0.777342	-0.0117527	0.815998	1.05175	0.00805178	0.0139793	1.30566	0.430679	0	0	0.992808	-0.143644	-0.0222859	1.28587	0.522576	0	0	-0.702344	-0.0283011	0.102506	0.56968	-0.226052	0.126996	0.374543	1.37027	0	0	0.576562	-0.271879	0.438277	0.369842	1.36081	0	0
5.16	0.105961	1.27786	1.39351	0.777275	-0.0113065	0.817988	1.04587	0.00815483	0.0159136	1.2991	0.42786	0	0	0.986004	-0.143096	-0.0250162	1.27775	0.519984	0	0	-0.699367	-0.0296293	0.102945	0.567081	-0.226837	0.135193	0.371875	1.36425	0	0	0.573587	-0.27183	0.441495	0.371199	1.35862	0	0
5.17	0.102542	1.27975	1.3964	0.777208	-0.01081	0.820157	1.03939	0.00812566	0.0178396	1.29174	0.425069	0	0	0.978534	-0.142577	-0.0281618	1.26875	0.517319	0	0	-0.696307	-0.0310902	0.103116	0.564153	-0.227255	0.141971	0.369755	1.36063	0	0	0.57029	-0.271871	0.442461	0.372603	1.35991	0	0
5.18	0.08441	1.27505	1.40723	0.777129	-0.0112142	0.821916	1.0621	0.00649726	0.0237865	1.32393	0.407234	0	0	0.978336	-0.142724	-0.0349341	1.25832	0.512086	0	0	-0.685243	-0.0381406	0.105955	0.560552	-0.228083	0.14651	0.368106	1.36047	0	0	0.56599	-0.271003	0.441154	0.373843	1.36221	0	0
5.19	0.0803673	1.27694	1.41053	0.777006	-0.010652	0.824428	1.05482	0.00649676	0.0261183	1.31532	0.404403	0	0	0.969956	-0.142237	-0.0389565	1.24767	0.508694	0	0	-0.681519	-0.039646	0.106079	0.556744	-0.22824	0.150556	0.367454	1.36005	0	0	0.561768	-0.271069	0.439407	0.375961	1.36838	0	0
5.2	0.0778909	1.27886	1.41258	0.776868	-0.0100194	0.827116	1.04683	0.00655279	0.0278482	1.30576	0.401402	0	0	0.961089	-0.142097	-0.0429209	1.23628	0.505194	0	0	-0.677467	-0.0405846	0.106457	0.552269	-0.22826	0.152635	0.366814	1.36054	0	0	0.557236	-0.270923	0.437293	0.377572	1.37527	0	0
5.21	0.0761675	1.28058	1.41419	0.776663	-0.00933389	0.829915	1.03864	0.00636097	0.0290164	1.29574	0.398155	0	0	0.952062	-0.141965	-0.0468333	1.22417	0.50158	0	0	-0.672646	-0.0409697	0.106831	0.547083	-0.228377	0.153065	0.366368	1.36072	0	0	0.552159	-0.270699	0.434612	0.379336	1.38118	0	0
5.22	0.0745909	1.28234	1.41582	0.776404	-0.00859833	0.832838	1.03007	0.00586575	0.0298188	1.28531	0.394639	0	0	0.942579	-0.141819	-0.0511039	1.21111	0.497784	0	0	-0.667466	-0.0410784	0.107087	0.541485	-0.228669	0.152515	0.366197	1.36004	0	0	0.5465	-0.270494	0.431651	0.381539	1.38565	0	0
5.23	0.0731349	1.28369	1.41757	0.776088	-0.00786173	0.835829	1.02168	0.0051633	0.0303876	1.2743	0.390832	0	0	0.933382	-0.141327	-0.0549172	1.19764	0.493489	0	0	-0.661444	-0.0408364	0.107212	0.535417	-0.22919	0.151528	0.36637	1.35886	0	0	0.540218	-0.270344	0.429326	0.383727	1.38843	0	0
5.24	0.0709155	1.28579	1.4199	0.775734	-0.00708801	0.83904	1.01208	0.00420951	0.0312234	1.26245	0.38687	0	0	0.922783	-0.140705	-0.05939	1.18324	0.488769	0	0	-0.655698	-0.0407127	0.106869	0.529057	-0.232342	0.172119	0.368939	1.31911	0	0	0.533303	-0.271159	0.429845	0.388395	1.3864	0	0
5.25	0.0679509	1.28687	1.4231	0.775372	-0.00627612	0.84226	1.00339	0.00301509	0.0320229	1.25027	0.382665	0	0	0.91324	-0.14004	-0.064038	1.16867	0.483653	0	0	-0.648702	-0.0407144	0.106959	0.522365	-0.232683	0.165598	0.36943	1.32718	0	0	0.526582	-0.271279	0.428242	0.392172	1.38925	0	0
5.26	0.063798	1.28883	1.42706	0.775011	-0.00538882	0.845693	0.993397	0.0015416	0.0329687	1.23737	0.378143	0	0	0.901994	-0.139358	-0.0697551	1.1529	0.478196	0	0	-0.642335	-0.0412776	0.10728	0.515647	-0.233327	0.158333	0.37051	1.33714	0	0	0.519706	-0.271843	0.427346	0.397068	1.39425	0	0
5.27	0.0596871	1.29059	1.43082	0.77463	-0.00448456	0.84918	0.983336	0.0001844	0.0338536	1.224	0.373827	0	0	0.890701	-0.138897	-0.0757171	1.13674	0.472578	0	0	-0.635544	-0.0417699	0.107876	0.508594	-0.234426	0.151537	0.372001	1.34872	0	0	0.512841	-0.272202	0.426486	0.40121	1.4011	0	0
5.28	0.0558022	1.29239	1.43431	0.774198	-0.00354139	0.852751	0.97294	-0.00132803	0.0345624	1.21002	0.369112	0	0	0.87903	-0.138466	-0.0819193	1.11998	0.466752	0	0	-0.628521	-0.0420213	0.108557	0.501311	-0.235927	0.144701	0.37354	1.36021	0	0	0.505651	-0.272401	0.42517	0.405434	1.40881	0	0
5.29	0.0517601	1.29422	1.43799	0.773737	-0.00253722	0.856412	0.962212	-0.00305052	0.035173	1.19551	0.364019	0	0	0.866961	-0.137876	-0.0883186	1.1026	0.460622	0	0	-0.621268	-0.0421501	0.109182	0.493906	-0.237721	0.138923	0.375131	1.37266	0	0	0.497971	-0.272523	0.423442	0.410222	1.41671	0	0
5.3	0.0472263	1.29585	1.44203	0.773266	-0.00152725	0.860127	0.951352	-0.00467011	0.035979	1.18035	0.359046	0	0	0.854787	-0.137262	-0.0951173	1.08461	0.454238	0	0	-0.613515	-0.0423571	0.109903	0.486368	-0.239573	0.133671	0.376614	1.38621	0	0	0.490162	-0.272317	0.421491	0.414005	1.42405	0	0
5.31	0.0431235	1.29758	1.4455	0.772778	-0.000476025	0.863913	0.940116	-0.00629402	0.0364837	1.16468	0.354092	0	0	0.842114	-0.1368	-0.102107	1.06598	0.447732	0	0	-0.605539	-0.0423971	0.110919	0.478504	-0.241603	0.128443	0.378303	1.39955	0	0	0.482207	-0.272027	0.420793	0.417668	1.43007	0	0
5.32	0.0389375	1.29964	1.44886	0.772296	0.000654952	0.867791	0.928304	-0.0080882	0.0367336	1.14869	0.348647	0	0	0.828634	-0.136584	-0.109913	1.04672	0.440985	0	0	-0.59766	-0.0425971	0.112106	0.47038	-0.243582	0.121875	0.380362	1.41106	0	0	0.474249	-0.271688	0.420563	0.421338	1.43466	0	0
5.33	0.0353852	1.30257	1.45123	0.771783	0.00183805	0.87184	0.915054	-0.00964691	0.0369519	1.13193	0.343169	0	0	0.813792	-0.136599	-0.11824	1.02689	0.433941	0	0	-0.590741	-0.0427306	0.113676	0.462534	-0.245922	0.116015	0.382291	1.42188	0	0	0.466467	-0.27107	0.42032	0.424813	1.43775	0	0
5.34	0.031278	1.30553	1.45406	0.771266	0.00305299	0.875928	0.901588	-0.0113163	0.0372376	1.11466	0.337326	0	0	0.798693	-0.136322	-0.126667	1.00658	0.42658	0	0	-0.583563	-0.0429572	0.115336	0.454497	-0.248264	0.111403	0.384175	1.43342	0	0	0.458562	-0.270426	0.419707	0.428382	1.43979	0	0
5.35	0.0276173	1.30864	1.45685	0.770723	0.00433032	0.880065	0.887588	-0.0132325	0.0370473	1.0969	0.331652	0	0	0.783221	-0.13566	-0.134678	0.985733	0.418962	0	0	-0.576333	-0.0428463	0.116818	0.446271	-0.25051	0.106928	0.386468	1.4455	0	0	0.450498	-0.269796	0.418063	0.432864	1.44096	0	0
5.36	0.0234719	1.31152	1.4604	0.770126	0.00564841	0.884182	0.873794	-0.0156988	0.0365079	1.07909	0.325974	0	0	0.767779	-0.134657	-0.1429	0.964311	0.411032	0	0	-0.568466	-0.0425568	0.117968	0.437716	-0.252601	0.102646	0.388742	1.45918	0	0	0.441917	-0.269513	0.41624	0.438977	1.44013	0	0
5.37	0.0182057	1.31471	1.46414	0.769603	0.00698685	0.88836	0.859735	-0.017879	0.0366008	1.06116	0.320061	0	0	0.75146	-0.134221	-0.152808	0.942241	0.402847	0	0	-0.561026	-0.0432175	0.120137	0.430044	-0.251786	0.0758036	0.388172	1.51792	0	0	0.433806	-0.269585	0.417873	0.445045	1.43352	0	0
